# xmcd
#
# Track frame offsets:
#	150
#	14154
#	28577
#	42301
#	54544
#	65868
#	79911
#	93413
#	107807
#	120829
#	136641
#	149495
#	164692
#	177076
#	191928
#	204841
#
# Disc length: 2942 seconds
#
# Revision: 1
# Processed by: cddbd v1.5.1PL2 Copyright (c) Steve Scherf et al.
# Submitted via: audiograbber 1.83.01
#
DISCID=e60b7c10
DTITLE=Jimmie Rodgers - Train Whistle Blues
DYEAR=1958
DGENRE=Country
TTITLE0=Jimmie Rodgers - 01 - Train Whistle Blues (trim 3.04)
TTITLE1=Jimmie Rodgers - 02 - Treasures Untold (trim 3.10)
TTITLE2=Jimmie Rodgers - 03 - Somewhere Down Below The Dixon Line (trim 3.00)
TTITLE3=Jimmie Rodgers - 04 - Hobo Bill's Last Ride (trim 2.41)
TTITLE4=Jimmie Rodgers - 05 - Blue Yodel #5 (trim 2.28)
TTITLE5=Jimmie Rodgers - 06 - My Little Old Hometown In New Orleans (trim 3.05)
TTITLE6=Jimmie Rodgers - 07 - High Powered Mama (trim 2.58)
TTITLE7=Jimmie Rodgers - 08 - No Hard Times (trim 3.09)
TTITLE8=Jimmie Rodgers - 09 - Jimmie's Texas Blues (trim 2.51)
TTITLE9=Jimmie Rodgers - 10 - Ben Dewberry's Final Run (trim 3.28)
TTITLE10=Jimmie Rodgers - 11 - My Good Gal's Gone Blues (trim 2.49)
TTITLE11=Jimmie Rodgers - 12 - Down The Old Road to home (trim 3.20)
TTITLE12=Jimmie Rodgers - 13 - Let Me Be Your Sidetrack (trim 2.43)
TTITLE13=Jimmie Rodgers - 14 - Lullaby Yodel (trim 3.16)
TTITLE14=Jimmie Rodgers - 15 - Any Old Time (trim 2.50)
TTITLE15=Jimmie Rodgers - 16 - Mississipp Deltai Blues (trim 3.31)
EXTD=RCA LPM-1640
EXTT0=
EXTT1=
EXTT2=
EXTT3=
EXTT4=
EXTT5=
EXTT6=
EXTT7=
EXTT8=
EXTT9=
EXTT10=
EXTT11=
EXTT12=
EXTT13=
EXTT14=
EXTT15=
PLAYORDER=
